<svg xmlns="http://www.w3.org/2000/svg" xmlns:xlink="http://www.w3.org/1999/xlink" width="500" zoomAndPan="magnify" viewBox="0 0 375 374.999991" height="500" preserveAspectRatio="xMidYMid meet" version="1.0"><defs><g/><clipPath id="938ce3fb50"><path d="M 144 101 L 275 101 L 275 251 L 144 251 Z M 144 101 " clip-rule="nonzero"/></clipPath><clipPath id="dd5c51b673"><path d="M 195.144531 281.78125 L 93.535156 171.4375 L 203.878906 69.828125 L 305.488281 180.167969 Z M 195.144531 281.78125 " clip-rule="nonzero"/></clipPath><clipPath id="3aaff8ad1d"><path d="M 195.144531 281.78125 L 93.535156 171.4375 L 203.878906 69.828125 L 305.488281 180.167969 Z M 195.144531 281.78125 " clip-rule="nonzero"/></clipPath><clipPath id="9d3f68a618"><path d="M 129 117 L 169.425781 117 L 169.425781 163.3125 L 129 163.3125 Z M 129 117 " clip-rule="nonzero"/></clipPath></defs><g clip-path="url(#938ce3fb50)"><g clip-path="url(#dd5c51b673)"><g clip-path="url(#3aaff8ad1d)"><path fill="#ffffff" d="M 254.867188 125.171875 C 255.699219 126.078125 256.507812 127 257.292969 127.941406 C 258.082031 128.886719 258.84375 129.847656 259.582031 130.828125 C 260.320312 131.808594 261.035156 132.804688 261.726562 133.820312 C 262.414062 134.835938 263.082031 135.867188 263.71875 136.914062 C 264.359375 137.960938 264.972656 139.027344 265.558594 140.105469 C 266.148438 141.179688 266.707031 142.273438 267.242188 143.378906 C 267.773438 144.484375 268.28125 145.601562 268.757812 146.734375 C 269.238281 147.863281 269.6875 149.003906 270.113281 150.15625 C 270.535156 151.308594 270.929688 152.472656 271.292969 153.644531 C 271.660156 154.816406 271.996094 155.996094 272.304688 157.183594 C 272.613281 158.371094 272.890625 159.566406 273.140625 160.769531 C 273.386719 161.972656 273.609375 163.179688 273.796875 164.390625 C 273.988281 165.605469 274.148438 166.820312 274.277344 168.042969 C 274.40625 169.261719 274.507812 170.484375 274.578125 171.710938 C 274.648438 172.9375 274.6875 174.164062 274.695312 175.390625 C 274.707031 176.617188 274.683594 177.847656 274.636719 179.070312 C 274.585938 180.296875 274.503906 181.523438 274.394531 182.746094 C 274.28125 183.96875 274.140625 185.1875 273.972656 186.402344 C 273.800781 187.617188 273.601562 188.828125 273.371094 190.035156 C 273.140625 191.242188 272.882812 192.441406 272.59375 193.632812 C 272.304688 194.828125 271.984375 196.011719 271.640625 197.191406 C 271.292969 198.367188 270.914062 199.535156 270.511719 200.695312 C 270.105469 201.855469 269.675781 203.003906 269.214844 204.140625 C 268.753906 205.277344 268.265625 206.402344 267.75 207.515625 C 267.234375 208.632812 266.6875 209.730469 266.121094 210.820312 C 265.550781 211.90625 264.953125 212.980469 264.328125 214.035156 C 263.707031 215.09375 263.058594 216.136719 262.386719 217.164062 C 261.710938 218.1875 261.011719 219.199219 260.289062 220.1875 C 259.566406 221.179688 258.816406 222.15625 258.046875 223.109375 C 257.277344 224.0625 256.480469 225 255.664062 225.917969 C 254.847656 226.832031 254.007812 227.726562 253.148438 228.601562 C 252.285156 229.476562 251.402344 230.332031 250.5 231.160156 C 249.597656 231.992188 248.675781 232.800781 247.730469 233.589844 C 246.789062 234.375 245.828125 235.136719 244.847656 235.875 C 243.867188 236.617188 242.871094 237.332031 241.855469 238.019531 C 240.839844 238.710938 239.808594 239.375 238.761719 240.015625 C 237.710938 240.652344 236.648438 241.265625 235.570312 241.855469 C 234.492188 242.441406 233.402344 243.003906 232.296875 243.535156 C 231.191406 244.070312 230.074219 244.574219 228.941406 245.054688 C 227.8125 245.53125 226.671875 245.984375 225.515625 246.40625 C 224.363281 246.828125 223.203125 247.222656 222.03125 247.589844 C 220.859375 247.953125 219.679688 248.292969 218.492188 248.597656 C 217.300781 248.90625 216.105469 249.183594 214.90625 249.433594 C 213.703125 249.683594 212.496094 249.902344 211.28125 250.09375 C 210.070312 250.28125 208.851562 250.441406 207.632812 250.570312 C 206.410156 250.703125 205.1875 250.800781 203.964844 250.871094 C 202.738281 250.941406 201.511719 250.980469 200.285156 250.992188 C 199.054688 251 197.828125 250.980469 196.601562 250.929688 C 195.375 250.878906 194.152344 250.796875 192.929688 250.6875 C 191.707031 250.578125 190.488281 250.4375 189.269531 250.265625 C 188.054688 250.097656 186.84375 249.894531 185.640625 249.664062 C 184.433594 249.4375 183.234375 249.175781 182.039062 248.886719 C 180.847656 248.597656 179.664062 248.28125 178.484375 247.933594 C 177.308594 247.585938 176.140625 247.210938 174.980469 246.804688 C 173.820312 246.402344 172.671875 245.96875 171.535156 245.507812 C 170.398438 245.046875 169.269531 244.558594 168.15625 244.042969 C 167.042969 243.527344 165.941406 242.984375 164.855469 242.414062 C 163.769531 241.84375 162.695312 241.246094 161.636719 240.625 C 160.582031 240.003906 159.539062 239.355469 158.511719 238.679688 C 157.484375 238.007812 156.476562 237.308594 155.484375 236.582031 C 154.492188 235.859375 153.519531 235.113281 152.566406 234.34375 C 151.609375 233.570312 150.675781 232.777344 149.757812 231.960938 C 148.84375 231.140625 147.945312 230.304688 147.070312 229.441406 C 146.195312 228.582031 145.34375 227.699219 144.511719 226.796875 C 144.394531 226.667969 144.304688 226.523438 144.246094 226.359375 C 144.1875 226.195312 144.160156 226.027344 144.167969 225.851562 C 144.175781 225.679688 144.214844 225.511719 144.289062 225.355469 C 144.359375 225.199219 144.460938 225.058594 144.589844 224.941406 C 144.71875 224.824219 144.863281 224.734375 145.027344 224.675781 C 145.1875 224.613281 145.359375 224.589844 145.53125 224.597656 C 145.707031 224.601562 145.871094 224.644531 146.027344 224.714844 C 146.1875 224.789062 146.324219 224.890625 146.441406 225.019531 C 147.246094 225.890625 148.070312 226.742188 148.914062 227.570312 C 149.757812 228.402344 150.621094 229.210938 151.503906 230 C 152.390625 230.789062 153.292969 231.554688 154.214844 232.300781 C 155.136719 233.042969 156.074219 233.765625 157.03125 234.464844 C 157.988281 235.160156 158.960938 235.835938 159.953125 236.488281 C 160.941406 237.136719 161.949219 237.761719 162.96875 238.363281 C 163.988281 238.964844 165.023438 239.539062 166.074219 240.089844 C 167.125 240.640625 168.183594 241.164062 169.261719 241.664062 C 170.335938 242.160156 171.421875 242.632812 172.519531 243.078125 C 173.617188 243.519531 174.726562 243.9375 175.84375 244.328125 C 176.960938 244.71875 178.089844 245.082031 179.226562 245.417969 C 180.363281 245.75 181.507812 246.058594 182.65625 246.335938 C 183.808594 246.617188 184.96875 246.867188 186.128906 247.089844 C 187.292969 247.308594 188.460938 247.503906 189.636719 247.667969 C 190.808594 247.832031 191.984375 247.96875 193.164062 248.074219 C 194.34375 248.179688 195.527344 248.257812 196.710938 248.308594 C 197.894531 248.355469 199.078125 248.375 200.261719 248.367188 C 201.445312 248.359375 202.632812 248.320312 203.8125 248.25 C 204.996094 248.183594 206.175781 248.085938 207.355469 247.960938 C 208.53125 247.835938 209.707031 247.683594 210.878906 247.5 C 212.046875 247.316406 213.210938 247.105469 214.371094 246.863281 C 215.53125 246.625 216.6875 246.355469 217.832031 246.058594 C 218.980469 245.761719 220.117188 245.4375 221.25 245.082031 C 222.378906 244.730469 223.5 244.351562 224.613281 243.941406 C 225.726562 243.535156 226.828125 243.101562 227.917969 242.636719 C 229.007812 242.175781 230.089844 241.6875 231.15625 241.171875 C 232.222656 240.65625 233.277344 240.117188 234.316406 239.550781 C 235.355469 238.984375 236.382812 238.390625 237.394531 237.773438 C 238.40625 237.15625 239.398438 236.515625 240.378906 235.851562 C 241.359375 235.183594 242.320312 234.496094 243.269531 233.78125 C 244.214844 233.066406 245.140625 232.332031 246.050781 231.574219 C 246.960938 230.816406 247.851562 230.035156 248.722656 229.230469 C 249.59375 228.429688 250.445312 227.605469 251.277344 226.761719 C 252.109375 225.917969 252.917969 225.054688 253.707031 224.167969 C 254.496094 223.285156 255.261719 222.382812 256.003906 221.460938 C 256.75 220.539062 257.472656 219.601562 258.167969 218.644531 C 258.867188 217.6875 259.542969 216.710938 260.191406 215.722656 C 260.84375 214.730469 261.46875 213.726562 262.070312 212.707031 C 262.667969 211.683594 263.246094 210.648438 263.796875 209.601562 C 264.34375 208.550781 264.871094 207.488281 265.367188 206.414062 C 265.867188 205.339844 266.335938 204.253906 266.78125 203.15625 C 267.226562 202.058594 267.644531 200.949219 268.035156 199.832031 C 268.425781 198.710938 268.785156 197.585938 269.121094 196.449219 C 269.457031 195.3125 269.761719 194.167969 270.042969 193.015625 C 270.320312 191.863281 270.570312 190.707031 270.792969 189.542969 C 271.015625 188.378906 271.207031 187.210938 271.371094 186.039062 C 271.539062 184.867188 271.671875 183.6875 271.78125 182.507812 C 271.886719 181.328125 271.964844 180.148438 272.011719 178.964844 C 272.0625 177.78125 272.082031 176.597656 272.070312 175.410156 C 272.0625 174.226562 272.023438 173.042969 271.957031 171.859375 C 271.890625 170.679688 271.792969 169.496094 271.667969 168.320312 C 271.542969 167.140625 271.386719 165.96875 271.203125 164.796875 C 271.023438 163.628906 270.808594 162.460938 270.570312 161.300781 C 270.328125 160.140625 270.0625 158.988281 269.765625 157.839844 C 269.46875 156.695312 269.140625 155.554688 268.789062 154.425781 C 268.4375 153.292969 268.054688 152.171875 267.648438 151.0625 C 267.238281 149.949219 266.804688 148.847656 266.34375 147.757812 C 265.882812 146.664062 265.394531 145.585938 264.878906 144.519531 C 264.363281 143.453125 263.820312 142.398438 263.253906 141.359375 C 262.6875 140.320312 262.097656 139.292969 261.480469 138.28125 C 260.863281 137.269531 260.222656 136.273438 259.554688 135.296875 C 258.890625 134.316406 258.199219 133.351562 257.488281 132.40625 C 256.773438 131.460938 256.039062 130.53125 255.277344 129.625 C 254.519531 128.714844 253.738281 127.824219 252.9375 126.953125 C 252.132812 126.078125 251.3125 125.230469 250.46875 124.398438 C 249.621094 123.566406 248.757812 122.757812 247.875 121.96875 C 246.992188 121.179688 246.085938 120.414062 245.167969 119.667969 C 244.246094 118.925781 243.304688 118.203125 242.347656 117.503906 C 241.390625 116.808594 240.417969 116.132812 239.425781 115.484375 C 238.4375 114.832031 237.429688 114.207031 236.410156 113.605469 C 235.390625 113.003906 234.355469 112.429688 233.304688 111.878906 C 232.257812 111.328125 231.195312 110.804688 230.121094 110.308594 C 229.042969 109.808594 227.957031 109.335938 226.859375 108.894531 C 225.761719 108.449219 224.652344 108.03125 223.535156 107.640625 C 222.417969 107.25 221.289062 106.886719 220.152344 106.554688 C 219.015625 106.21875 217.875 105.910156 216.722656 105.632812 C 215.570312 105.355469 214.414062 105.101562 213.25 104.882812 C 212.085938 104.660156 210.917969 104.464844 209.742188 104.300781 C 208.570312 104.136719 207.394531 104 206.214844 103.894531 C 205.035156 103.789062 203.851562 103.710938 202.667969 103.660156 C 201.484375 103.613281 200.300781 103.59375 199.117188 103.601562 C 197.933594 103.613281 196.75 103.648438 195.566406 103.71875 C 194.382812 103.785156 193.203125 103.882812 192.023438 104.007812 C 190.847656 104.132812 189.671875 104.285156 188.503906 104.46875 C 187.332031 104.652344 186.167969 104.863281 185.007812 105.105469 C 183.847656 105.34375 182.695312 105.613281 181.546875 105.910156 C 180.398438 106.207031 179.261719 106.53125 178.128906 106.886719 C 177 107.238281 175.878906 107.617188 174.765625 108.027344 C 173.652344 108.433594 172.550781 108.871094 171.460938 109.332031 C 170.371094 109.792969 169.292969 110.28125 168.226562 110.796875 C 167.15625 111.3125 166.105469 111.851562 165.0625 112.417969 C 164.023438 112.984375 162.996094 113.578125 161.988281 114.195312 C 160.976562 114.8125 159.980469 115.453125 159 116.117188 C 158.019531 116.785156 157.058594 117.472656 156.113281 118.1875 C 155.164062 118.902344 154.238281 119.636719 153.328125 120.394531 C 152.417969 121.15625 151.527344 121.933594 150.65625 122.738281 C 150.527344 122.855469 150.382812 122.945312 150.21875 123.003906 C 150.054688 123.0625 149.886719 123.089844 149.714844 123.082031 C 149.539062 123.074219 149.375 123.035156 149.214844 122.960938 C 149.058594 122.890625 148.921875 122.789062 148.800781 122.660156 C 148.683594 122.53125 148.597656 122.386719 148.535156 122.222656 C 148.476562 122.0625 148.449219 121.890625 148.457031 121.71875 C 148.464844 121.542969 148.503906 121.378906 148.578125 121.222656 C 148.652344 121.0625 148.75 120.925781 148.878906 120.808594 C 149.78125 119.976562 150.707031 119.167969 151.648438 118.382812 C 152.59375 117.601562 153.554688 116.839844 154.535156 116.101562 C 155.515625 115.363281 156.515625 114.648438 157.53125 113.960938 C 158.546875 113.273438 159.578125 112.609375 160.625 111.96875 C 161.671875 111.332031 162.738281 110.71875 163.816406 110.132812 C 164.894531 109.546875 165.984375 108.988281 167.089844 108.457031 C 168.195312 107.921875 169.3125 107.417969 170.445312 106.941406 C 171.574219 106.460938 172.714844 106.011719 173.867188 105.589844 C 175.019531 105.167969 176.183594 104.773438 177.355469 104.410156 C 178.527344 104.046875 179.707031 103.710938 180.894531 103.402344 C 182.082031 103.09375 183.277344 102.816406 184.480469 102.570312 C 185.679688 102.320312 186.886719 102.101562 188.101562 101.914062 C 189.3125 101.722656 190.527344 101.5625 191.75 101.433594 C 192.96875 101.304688 194.191406 101.203125 195.417969 101.136719 C 196.644531 101.066406 197.867188 101.027344 199.097656 101.015625 C 200.324219 101.007812 201.550781 101.027344 202.777344 101.078125 C 204.003906 101.128906 205.226562 101.207031 206.449219 101.320312 C 207.671875 101.429688 208.890625 101.570312 210.105469 101.742188 C 211.320312 101.910156 212.53125 102.109375 213.734375 102.339844 C 214.941406 102.570312 216.140625 102.828125 217.332031 103.117188 C 218.527344 103.40625 219.710938 103.722656 220.886719 104.070312 C 222.066406 104.414062 223.234375 104.789062 224.390625 105.195312 C 225.550781 105.597656 226.699219 106.03125 227.835938 106.492188 C 228.976562 106.949219 230.101562 107.4375 231.214844 107.953125 C 232.328125 108.46875 233.429688 109.011719 234.515625 109.578125 C 235.601562 110.148438 236.675781 110.746094 237.734375 111.367188 C 238.792969 111.988281 239.832031 112.636719 240.859375 113.308594 C 241.886719 113.980469 242.894531 114.679688 243.886719 115.402344 C 244.878906 116.121094 245.851562 116.867188 246.808594 117.640625 C 247.765625 118.410156 248.699219 119.203125 249.617188 120.019531 C 250.535156 120.832031 251.429688 121.671875 252.304688 122.53125 C 253.179688 123.390625 254.035156 124.273438 254.867188 125.171875 Z M 254.867188 125.171875 " fill-opacity="1" fill-rule="nonzero"/></g></g></g><g clip-path="url(#9d3f68a618)"><path fill="#ffffff" d="M 144.855469 130.59375 C 145.28125 130.597656 145.703125 130.558594 146.121094 130.480469 C 146.539062 130.402344 146.945312 130.285156 147.339844 130.132812 C 147.738281 129.976562 148.113281 129.78125 148.472656 129.554688 C 148.832031 129.324219 149.164062 129.066406 149.472656 128.773438 C 149.78125 128.480469 150.058594 128.160156 150.308594 127.816406 C 150.554688 127.46875 150.765625 127.101562 150.945312 126.714844 C 151.121094 126.328125 151.257812 125.929688 151.359375 125.515625 C 151.460938 125.101562 151.519531 124.683594 151.539062 124.257812 C 151.554688 123.820312 151.527344 123.386719 151.457031 122.957031 C 151.386719 122.527344 151.273438 122.105469 151.121094 121.699219 C 150.964844 121.289062 150.773438 120.898438 150.539062 120.527344 C 150.308594 120.160156 150.042969 119.816406 149.742188 119.496094 C 149.441406 119.179688 149.113281 118.894531 148.757812 118.644531 C 148.398438 118.394531 148.019531 118.179688 147.621094 118.003906 C 147.222656 117.828125 146.808594 117.691406 146.382812 117.597656 C 145.953125 117.503906 145.523438 117.453125 145.085938 117.445312 C 144.648438 117.4375 144.214844 117.472656 143.785156 117.550781 C 143.355469 117.628906 142.9375 117.75 142.535156 117.910156 C 142.128906 118.070312 141.742188 118.273438 141.375 118.511719 C 141.011719 118.75 140.671875 119.019531 140.359375 119.328125 C 140.046875 119.632812 139.769531 119.96875 139.523438 120.328125 C 139.277344 120.691406 139.070312 121.074219 138.902344 121.476562 C 138.734375 121.878906 138.605469 122.292969 138.519531 122.722656 C 138.433594 123.148438 138.390625 123.582031 138.390625 124.019531 C 138.390625 124.445312 138.433594 124.867188 138.515625 125.289062 C 138.597656 125.707031 138.71875 126.113281 138.882812 126.507812 C 139.042969 126.902344 139.242188 127.28125 139.476562 127.636719 C 139.710938 127.992188 139.980469 128.324219 140.277344 128.628906 C 140.578125 128.933594 140.902344 129.203125 141.257812 129.445312 C 141.609375 129.6875 141.980469 129.890625 142.375 130.058594 C 142.765625 130.226562 143.171875 130.359375 143.589844 130.445312 C 144.003906 130.535156 144.429688 130.585938 144.855469 130.59375 Z M 145.070312 119.65625 C 145.359375 119.664062 145.640625 119.695312 145.921875 119.757812 C 146.199219 119.820312 146.46875 119.910156 146.730469 120.023438 C 146.992188 120.140625 147.242188 120.277344 147.476562 120.441406 C 147.710938 120.605469 147.929688 120.789062 148.125 120.996094 C 148.324219 121.203125 148.5 121.425781 148.65625 121.667969 C 148.8125 121.90625 148.941406 122.160156 149.046875 122.425781 C 149.152344 122.691406 149.230469 122.964844 149.28125 123.25 C 149.332031 123.53125 149.355469 123.8125 149.351562 124.097656 C 149.347656 124.386719 149.3125 124.667969 149.253906 124.949219 C 149.195312 125.226562 149.109375 125.5 148.996094 125.761719 C 148.882812 126.023438 148.746094 126.273438 148.582031 126.511719 C 148.421875 126.746094 148.238281 126.964844 148.035156 127.164062 C 147.828125 127.363281 147.605469 127.542969 147.367188 127.699219 C 147.128906 127.855469 146.875 127.988281 146.609375 128.09375 C 146.34375 128.199219 146.070312 128.28125 145.789062 128.335938 C 145.507812 128.386719 145.226562 128.414062 144.941406 128.410156 C 144.652344 128.410156 144.371094 128.378906 144.089844 128.320312 C 143.808594 128.265625 143.539062 128.179688 143.273438 128.070312 C 143.011719 127.957031 142.761719 127.824219 142.523438 127.664062 C 142.285156 127.503906 142.066406 127.320312 141.867188 127.117188 C 141.664062 126.914062 141.484375 126.695312 141.324219 126.457031 C 141.167969 126.21875 141.035156 125.964844 140.925781 125.703125 C 140.816406 125.4375 140.734375 125.164062 140.679688 124.882812 C 140.621094 124.601562 140.59375 124.320312 140.59375 124.035156 C 140.59375 123.742188 140.621094 123.453125 140.679688 123.167969 C 140.734375 122.878906 140.820312 122.601562 140.933594 122.332031 C 141.046875 122.0625 141.183594 121.808594 141.347656 121.566406 C 141.511719 121.324219 141.699219 121.101562 141.90625 120.898438 C 142.117188 120.695312 142.34375 120.511719 142.589844 120.355469 C 142.832031 120.195312 143.09375 120.0625 143.363281 119.957031 C 143.636719 119.851562 143.914062 119.769531 144.203125 119.71875 C 144.492188 119.671875 144.78125 119.648438 145.070312 119.65625 Z M 169.171875 132.46875 C 168.960938 132.144531 168.664062 131.984375 168.277344 131.984375 L 162.15625 131.984375 C 162.011719 131.984375 161.871094 132.011719 161.738281 132.066406 C 161.605469 132.121094 161.488281 132.199219 161.386719 132.304688 C 161.285156 132.40625 161.207031 132.523438 161.152344 132.65625 C 161.09375 132.789062 161.066406 132.925781 161.066406 133.070312 C 161.066406 133.214844 161.09375 133.355469 161.152344 133.488281 C 161.207031 133.621094 161.285156 133.738281 161.386719 133.839844 C 161.488281 133.941406 161.605469 134.019531 161.738281 134.074219 C 161.871094 134.132812 162.011719 134.160156 162.15625 134.160156 L 166.285156 134.160156 C 162.828125 137.617188 159.375 141.070312 155.929688 144.523438 L 155.929688 141.492188 L 155.914062 141.507812 L 155.914062 139.328125 C 155.910156 138.898438 155.867188 138.476562 155.78125 138.058594 C 155.695312 137.640625 155.570312 137.234375 155.402344 136.839844 C 155.238281 136.445312 155.035156 136.070312 154.800781 135.714844 C 154.5625 135.363281 154.292969 135.035156 153.988281 134.730469 C 153.6875 134.429688 153.359375 134.160156 153.007812 133.917969 C 152.652344 133.679688 152.277344 133.480469 151.882812 133.3125 C 151.492188 133.148438 151.085938 133.019531 150.667969 132.933594 C 150.25 132.847656 149.824219 132.800781 149.398438 132.796875 C 146.425781 132.789062 143.457031 132.792969 140.484375 132.804688 C 139.734375 132.808594 139.007812 132.941406 138.304688 133.199219 C 137.601562 133.457031 136.960938 133.828125 136.386719 134.304688 C 135.808594 134.785156 135.332031 135.347656 134.949219 135.992188 C 134.566406 136.640625 134.304688 137.328125 134.164062 138.066406 C 134.046875 139.078125 133.996094 140.089844 134.011719 141.109375 C 134.003906 141.21875 134.011719 141.335938 134.011719 141.484375 C 133.992188 141.476562 133.972656 141.464844 133.953125 141.457031 L 133.953125 145.234375 C 133.988281 145.417969 134.007812 145.605469 134.003906 145.792969 C 134.011719 146.429688 134.011719 152.164062 134.011719 154.511719 L 133.953125 154.511719 L 133.953125 156.589844 L 129.316406 161.230469 C 129.214844 161.332031 129.136719 161.449219 129.082031 161.582031 C 129.027344 161.714844 129 161.855469 129 162 C 129 162.144531 129.027344 162.28125 129.082031 162.417969 C 129.136719 162.550781 129.21875 162.667969 129.320312 162.769531 C 129.421875 162.871094 129.539062 162.949219 129.671875 163.003906 C 129.808594 163.058594 129.945312 163.085938 130.089844 163.085938 C 130.234375 163.085938 130.375 163.058594 130.507812 163.003906 C 130.640625 162.945312 130.757812 162.867188 130.859375 162.765625 L 145.101562 148.523438 L 148.8125 152.234375 C 148.902344 152.324219 149.011719 152.394531 149.128906 152.445312 C 149.207031 152.59375 149.316406 152.71875 149.453125 152.816406 C 149.589844 152.917969 149.742188 152.980469 149.910156 153.003906 C 150.074219 153.03125 150.238281 153.015625 150.398438 152.964844 C 150.558594 152.910156 150.699219 152.824219 150.820312 152.707031 L 153.710938 149.8125 C 154.445312 149.074219 155.179688 148.339844 155.914062 147.609375 C 159.78125 143.742188 163.644531 139.875 167.511719 136.015625 L 167.511719 140.144531 C 167.511719 140.289062 167.539062 140.429688 167.59375 140.5625 C 167.648438 140.695312 167.726562 140.8125 167.828125 140.914062 C 167.929688 141.015625 168.050781 141.09375 168.183594 141.148438 C 168.316406 141.203125 168.453125 141.234375 168.597656 141.234375 C 168.742188 141.234375 168.882812 141.203125 169.015625 141.148438 C 169.148438 141.09375 169.265625 141.015625 169.367188 140.914062 C 169.46875 140.8125 169.546875 140.695312 169.601562 140.5625 C 169.65625 140.429688 169.683594 140.289062 169.683594 140.144531 L 169.683594 133.390625 C 169.675781 132.992188 169.503906 132.6875 169.171875 132.46875 Z M 150.050781 150.402344 C 148.753906 149.105469 147.460938 147.804688 146.167969 146.507812 C 146.101562 146.339844 145.996094 146.199219 145.859375 146.082031 C 145.71875 145.964844 145.5625 145.886719 145.386719 145.851562 C 145.207031 145.8125 145.03125 145.820312 144.859375 145.871094 C 144.683594 145.921875 144.535156 146.011719 144.40625 146.140625 L 136.199219 154.34375 C 136.199219 150.84375 136.195312 141.980469 136.199219 139.40625 C 136.199219 139.113281 136.222656 138.824219 136.277344 138.539062 C 136.332031 138.253906 136.414062 137.976562 136.523438 137.703125 C 136.632812 137.433594 136.769531 137.179688 136.933594 136.9375 C 137.09375 136.691406 137.277344 136.46875 137.484375 136.261719 C 137.691406 136.054688 137.914062 135.875 138.15625 135.710938 C 138.402344 135.550781 138.65625 135.414062 138.925781 135.304688 C 139.199219 135.195312 139.476562 135.113281 139.761719 135.058594 C 140.046875 135.007812 140.335938 134.980469 140.628906 134.984375 C 143.335938 134.976562 146.042969 134.976562 148.753906 134.984375 C 149.269531 134.96875 149.78125 135.007812 150.289062 135.09375 C 150.78125 135.199219 151.242188 135.386719 151.667969 135.652344 C 152.097656 135.921875 152.464844 136.25 152.777344 136.648438 C 153.089844 137.042969 153.328125 137.480469 153.488281 137.957031 C 153.648438 138.433594 153.722656 138.925781 153.710938 139.429688 C 153.71875 140.726562 153.710938 143.695312 153.710938 146.742188 Z M 150.050781 150.402344 " fill-opacity="1" fill-rule="nonzero"/></g><g fill="#ffffff" fill-opacity="1"><g transform="translate(86.83108, 212.928795)"><g><path d="M 35.28125 -33.03125 C 35.664062 -32.175781 35.90625 -31.296875 36 -30.390625 C 36.09375 -29.492188 36.140625 -28.578125 36.140625 -27.640625 C 36.117188 -25.984375 35.945312 -24.347656 35.625 -22.734375 C 35.3125 -21.128906 34.890625 -19.554688 34.359375 -18.015625 C 32.953125 -13.890625 31.132812 -10.023438 28.90625 -6.421875 C 26.675781 -2.828125 24.015625 0.488281 20.921875 3.53125 C 19.753906 4.664062 18.535156 5.71875 17.265625 6.6875 C 15.992188 7.65625 14.609375 8.484375 13.109375 9.171875 C 12.285156 9.554688 11.429688 9.875 10.546875 10.125 C 9.660156 10.375 8.757812 10.484375 7.84375 10.453125 C 7.425781 10.429688 7.007812 10.390625 6.59375 10.328125 C 6.175781 10.273438 5.773438 10.179688 5.390625 10.046875 C 3.429688 9.429688 2.335938 8.101562 2.109375 6.0625 C 2.023438 5.0625 2.0625 4.082031 2.21875 3.125 C 2.375 2.175781 2.601562 1.234375 2.90625 0.296875 C 3.875 -2.691406 5.0625 -5.582031 6.46875 -8.375 C 7.882812 -11.175781 9.503906 -13.847656 11.328125 -16.390625 C 11.660156 -16.859375 11.953125 -17.34375 12.203125 -17.84375 C 12.453125 -18.34375 12.6875 -18.867188 12.90625 -19.421875 C 13.925781 -22.128906 15.253906 -24.628906 16.890625 -26.921875 C 18.523438 -29.222656 20.421875 -31.34375 22.578125 -33.28125 C 23.460938 -34.050781 24.414062 -34.710938 25.4375 -35.265625 C 26.457031 -35.828125 27.566406 -36.191406 28.765625 -36.359375 C 29.035156 -36.410156 29.316406 -36.441406 29.609375 -36.453125 C 29.898438 -36.472656 30.1875 -36.46875 30.46875 -36.4375 C 32.726562 -36.320312 34.332031 -35.1875 35.28125 -33.03125 Z M 11.40625 -8.21875 C 11.382812 -8.382812 11.351562 -8.5625 11.3125 -8.75 C 11.269531 -8.945312 11.21875 -9.171875 11.15625 -9.421875 C 11 -9.285156 10.882812 -9.195312 10.8125 -9.15625 C 10.738281 -9.113281 10.703125 -9.0625 10.703125 -9 C 9.929688 -7.394531 9.21875 -5.769531 8.5625 -4.125 C 7.914062 -2.476562 7.359375 -0.800781 6.890625 0.90625 C 6.691406 1.570312 6.535156 2.25 6.421875 2.9375 C 6.316406 3.632812 6.289062 4.328125 6.34375 5.015625 C 6.375 5.328125 6.410156 5.640625 6.453125 5.953125 C 6.492188 6.273438 6.570312 6.585938 6.6875 6.890625 C 6.9375 7.609375 7.253906 8.054688 7.640625 8.234375 C 8.023438 8.410156 8.5625 8.363281 9.25 8.09375 C 9.476562 8.007812 9.6875 7.914062 9.875 7.8125 C 10.070312 7.71875 10.265625 7.628906 10.453125 7.546875 C 11.484375 7.023438 12.46875 6.4375 13.40625 5.78125 C 14.34375 5.132812 15.226562 4.425781 16.0625 3.65625 C 19.820312 0.25 22.953125 -3.539062 25.453125 -7.71875 C 27.960938 -11.894531 29.910156 -16.40625 31.296875 -21.25 C 31.703125 -22.632812 31.988281 -24.03125 32.15625 -25.4375 C 32.320312 -26.851562 32.351562 -28.28125 32.25 -29.71875 C 32.1875 -30.4375 32.066406 -31.144531 31.890625 -31.84375 C 31.710938 -32.550781 31.414062 -33.210938 31 -33.828125 C 30.695312 -34.316406 30.382812 -34.609375 30.0625 -34.703125 C 29.75 -34.804688 29.316406 -34.734375 28.765625 -34.484375 C 28.097656 -34.179688 27.472656 -33.816406 26.890625 -33.390625 C 26.304688 -32.960938 25.753906 -32.484375 25.234375 -31.953125 C 23.816406 -30.546875 22.535156 -29.03125 21.390625 -27.40625 C 20.242188 -25.789062 19.210938 -24.082031 18.296875 -22.28125 C 18.242188 -22.226562 18.207031 -22.148438 18.1875 -22.046875 C 18.175781 -21.953125 18.160156 -21.863281 18.140625 -21.78125 C 18.710938 -21.226562 19.0625 -20.832031 19.1875 -20.59375 C 19.3125 -20.363281 19.304688 -20.03125 19.171875 -19.59375 C 18.972656 -18.84375 18.722656 -18.117188 18.421875 -17.421875 C 18.117188 -16.734375 17.734375 -16.085938 17.265625 -15.484375 C 17.179688 -15.398438 17.078125 -15.328125 16.953125 -15.265625 C 16.828125 -15.210938 16.65625 -15.144531 16.4375 -15.0625 C 16.488281 -15.53125 16.523438 -15.976562 16.546875 -16.40625 C 16.578125 -16.84375 16.609375 -17.320312 16.640625 -17.84375 C 16.503906 -17.675781 16.398438 -17.554688 16.328125 -17.484375 C 16.253906 -17.421875 16.207031 -17.347656 16.1875 -17.265625 C 15.738281 -16.046875 15.367188 -14.804688 15.078125 -13.546875 C 14.796875 -12.285156 14.679688 -11.007812 14.734375 -9.71875 C 14.765625 -8.882812 14.898438 -8.132812 15.140625 -7.46875 C 15.753906 -5.695312 17.039062 -4.953125 19 -5.234375 C 19.332031 -5.285156 19.671875 -5.332031 20.015625 -5.375 C 20.367188 -5.414062 20.710938 -5.4375 21.046875 -5.4375 C 21.179688 -5.4375 21.3125 -5.382812 21.4375 -5.28125 C 21.5625 -5.1875 21.707031 -5.085938 21.875 -4.984375 C 21.726562 -4.898438 21.617188 -4.816406 21.546875 -4.734375 C 21.484375 -4.648438 21.410156 -4.59375 21.328125 -4.5625 C 19.640625 -3.894531 17.898438 -3.71875 16.109375 -4.03125 C 14.910156 -4.25 13.910156 -4.695312 13.109375 -5.375 C 12.304688 -6.050781 11.738281 -7 11.40625 -8.21875 Z M 11.40625 -8.21875 "/></g></g></g><g fill="#ffffff" fill-opacity="1"><g transform="translate(120.235432, 212.928795)"><g><path d="M 25.1875 -6.5625 C 25.269531 -6.53125 25.34375 -6.457031 25.40625 -6.34375 C 25.476562 -6.238281 25.554688 -6.128906 25.640625 -6.015625 C 25.535156 -5.960938 25.441406 -5.921875 25.359375 -5.890625 C 25.273438 -5.859375 25.21875 -5.859375 25.1875 -5.890625 C 24.632812 -6.222656 24.066406 -6.398438 23.484375 -6.421875 C 22.910156 -6.453125 22.316406 -6.414062 21.703125 -6.3125 C 20.460938 -6.0625 19.253906 -5.707031 18.078125 -5.25 C 16.898438 -4.789062 15.742188 -4.257812 14.609375 -3.65625 C 14.160156 -3.40625 13.753906 -3.113281 13.390625 -2.78125 C 13.035156 -2.445312 12.75 -2.046875 12.53125 -1.578125 C 12.195312 -0.910156 11.804688 -0.296875 11.359375 0.265625 C 10.921875 0.835938 10.441406 1.382812 9.921875 1.90625 C 9.171875 2.625 8.296875 2.890625 7.296875 2.703125 C 6.941406 2.617188 6.671875 2.453125 6.484375 2.203125 C 6.304688 1.953125 6.273438 1.644531 6.390625 1.28125 C 6.554688 0.675781 6.832031 0.125 7.21875 -0.375 C 8.238281 -1.675781 9.429688 -2.695312 10.796875 -3.4375 C 11.347656 -3.75 11.734375 -4.117188 11.953125 -4.546875 C 12.171875 -4.972656 12.304688 -5.476562 12.359375 -6.0625 C 12.421875 -6.664062 12.4375 -7.265625 12.40625 -7.859375 C 12.375 -8.453125 12.289062 -9.039062 12.15625 -9.625 C 12.101562 -9.84375 12.019531 -10.078125 11.90625 -10.328125 C 11.800781 -10.578125 11.691406 -10.84375 11.578125 -11.125 C 11.359375 -11.007812 11.15625 -10.910156 10.96875 -10.828125 C 10.789062 -10.742188 10.648438 -10.632812 10.546875 -10.5 C 10.046875 -9.894531 9.550781 -9.28125 9.0625 -8.65625 C 8.582031 -8.03125 8.117188 -7.382812 7.671875 -6.71875 C 6.597656 -5.0625 5.601562 -3.347656 4.6875 -1.578125 C 3.769531 0.191406 2.910156 1.988281 2.109375 3.8125 C 0.703125 7.050781 -0.691406 10.300781 -2.078125 13.5625 C -3.460938 16.832031 -4.84375 20.097656 -6.21875 23.359375 C -6.332031 23.609375 -6.441406 23.867188 -6.546875 24.140625 C -6.660156 24.421875 -6.773438 24.6875 -6.890625 24.9375 C -7.078125 25.382812 -7.25 25.703125 -7.40625 25.890625 C -7.5625 26.085938 -7.765625 26.1875 -8.015625 26.1875 C -8.265625 26.1875 -8.664062 26.128906 -9.21875 26.015625 C -9.40625 25.796875 -9.476562 25.5625 -9.4375 25.3125 C -9.394531 25.0625 -9.347656 24.8125 -9.296875 24.5625 C -8.992188 23.570312 -8.695312 22.578125 -8.40625 21.578125 C -8.113281 20.585938 -7.800781 19.59375 -7.46875 18.59375 C -5.894531 13.75 -4.3125 8.910156 -2.71875 4.078125 C -1.125 -0.742188 0.457031 -5.578125 2.03125 -10.421875 C 2.195312 -10.859375 2.367188 -11.296875 2.546875 -11.734375 C 2.734375 -12.179688 2.921875 -12.628906 3.109375 -13.078125 C 3.140625 -13.160156 3.222656 -13.234375 3.359375 -13.296875 C 3.492188 -13.367188 3.601562 -13.390625 3.6875 -13.359375 C 3.769531 -13.359375 3.859375 -13.296875 3.953125 -13.171875 C 4.054688 -13.046875 4.109375 -12.941406 4.109375 -12.859375 C 4.109375 -12.503906 4.09375 -12.148438 4.0625 -11.796875 C 4.039062 -11.453125 3.988281 -11.117188 3.90625 -10.796875 C 3.539062 -9.296875 3.164062 -7.789062 2.78125 -6.28125 C 2.394531 -4.78125 2.019531 -3.28125 1.65625 -1.78125 C 1.570312 -1.476562 1.488281 -1.179688 1.40625 -0.890625 C 1.320312 -0.597656 1.238281 -0.300781 1.15625 0 C 1.21875 0.03125 1.257812 0.046875 1.28125 0.046875 C 1.3125 0.046875 1.351562 0.0546875 1.40625 0.078125 C 1.601562 -0.304688 1.796875 -0.695312 1.984375 -1.09375 C 2.179688 -1.5 2.390625 -1.894531 2.609375 -2.28125 C 3.160156 -3.300781 3.710938 -4.320312 4.265625 -5.34375 C 4.828125 -6.375 5.425781 -7.390625 6.0625 -8.390625 C 6.414062 -8.941406 6.820312 -9.457031 7.28125 -9.9375 C 7.738281 -10.425781 8.1875 -10.90625 8.625 -11.375 C 9.40625 -12.175781 10.390625 -12.546875 11.578125 -12.484375 C 13.148438 -12.429688 14.0625 -11.644531 14.3125 -10.125 C 14.375 -9.707031 14.40625 -9.273438 14.40625 -8.828125 C 14.40625 -8.390625 14.40625 -7.953125 14.40625 -7.515625 C 14.40625 -7.179688 14.382812 -6.859375 14.34375 -6.546875 C 14.300781 -6.242188 14.265625 -5.929688 14.234375 -5.609375 C 14.535156 -5.492188 14.800781 -5.476562 15.03125 -5.5625 C 15.269531 -5.644531 15.503906 -5.726562 15.734375 -5.8125 C 16.921875 -6.164062 18.109375 -6.472656 19.296875 -6.734375 C 20.484375 -7.003906 21.710938 -7.097656 22.984375 -7.015625 C 23.347656 -7.015625 23.707031 -6.957031 24.0625 -6.84375 C 24.425781 -6.738281 24.800781 -6.644531 25.1875 -6.5625 Z M 9.125 1.03125 C 9.738281 0.84375 10.070312 0.457031 10.125 -0.125 C 9.65625 0.0703125 9.320312 0.457031 9.125 1.03125 Z M 9.125 1.03125 "/></g></g></g><g fill="#ffffff" fill-opacity="1"><g transform="translate(143.846709, 212.928795)"><g/></g></g><g fill="#ffffff" fill-opacity="1"><g transform="translate(156.876482, 212.928795)"><g><path d="M -8.171875 -32.28125 C -8.472656 -32.34375 -8.769531 -32.441406 -9.0625 -32.578125 C -9.351562 -32.710938 -9.554688 -32.988281 -9.671875 -33.40625 C -9.554688 -33.519531 -9.4375 -33.644531 -9.3125 -33.78125 C -9.1875 -33.914062 -9.054688 -34.023438 -8.921875 -34.109375 C -8.640625 -34.222656 -8.359375 -34.320312 -8.078125 -34.40625 C -7.804688 -34.488281 -7.535156 -34.554688 -7.265625 -34.609375 C -5.273438 -35.023438 -3.257812 -35.390625 -1.21875 -35.703125 C 0.8125 -36.023438 2.863281 -36.203125 4.9375 -36.234375 C 5.875 -36.253906 6.804688 -36.347656 7.734375 -36.515625 C 8.660156 -36.679688 9.597656 -36.820312 10.546875 -36.9375 C 12.066406 -37.125 13.578125 -37.304688 15.078125 -37.484375 C 16.585938 -37.671875 18.09375 -37.863281 19.59375 -38.0625 C 19.863281 -38.082031 20.144531 -38.117188 20.4375 -38.171875 C 20.726562 -38.234375 21.039062 -38.289062 21.375 -38.34375 C 21.539062 -38.707031 21.695312 -39.070312 21.84375 -39.4375 C 22 -39.8125 22.175781 -40.179688 22.375 -40.546875 C 22.5625 -40.960938 22.765625 -41.195312 22.984375 -41.25 C 23.210938 -41.300781 23.65625 -41.242188 24.3125 -41.078125 C 24.289062 -40.722656 24.265625 -40.359375 24.234375 -39.984375 C 24.203125 -39.609375 24.175781 -39.210938 24.15625 -38.796875 C 24.375 -38.773438 24.59375 -38.75 24.8125 -38.71875 C 25.039062 -38.6875 25.25 -38.6875 25.4375 -38.71875 C 27.15625 -38.882812 28.859375 -39.050781 30.546875 -39.21875 C 32.234375 -39.382812 33.9375 -39.535156 35.65625 -39.671875 C 38.75 -39.953125 41.835938 -40.1875 44.921875 -40.375 C 48.003906 -40.570312 51.097656 -40.546875 54.203125 -40.296875 C 54.722656 -40.265625 55.242188 -40.1875 55.765625 -40.0625 C 56.296875 -39.9375 56.828125 -39.789062 57.359375 -39.625 C 57.710938 -39.550781 58.035156 -39.394531 58.328125 -39.15625 C 58.617188 -38.914062 58.820312 -38.5625 58.9375 -38.09375 C 58.539062 -37.675781 58.109375 -37.460938 57.640625 -37.453125 C 57.171875 -37.441406 56.757812 -37.5625 56.40625 -37.8125 C 55.738281 -38.21875 55.050781 -38.46875 54.34375 -38.5625 C 53.632812 -38.664062 52.921875 -38.71875 52.203125 -38.71875 C 50.347656 -38.75 48.507812 -38.703125 46.6875 -38.578125 C 44.863281 -38.453125 43.035156 -38.289062 41.203125 -38.09375 C 39.128906 -37.90625 37.054688 -37.695312 34.984375 -37.46875 C 32.910156 -37.25 30.835938 -37.03125 28.765625 -36.8125 C 28.097656 -36.757812 27.429688 -36.691406 26.765625 -36.609375 C 26.097656 -36.523438 25.445312 -36.441406 24.8125 -36.359375 C 24.59375 -36.328125 24.375 -36.28125 24.15625 -36.21875 C 23.9375 -36.164062 23.710938 -36.113281 23.484375 -36.0625 C 23.429688 -35.863281 23.375 -35.675781 23.3125 -35.5 C 23.257812 -35.320312 23.207031 -35.132812 23.15625 -34.9375 C 22.101562 -30.875 21.046875 -26.804688 19.984375 -22.734375 C 18.921875 -18.671875 17.847656 -14.609375 16.765625 -10.546875 C 16.347656 -8.992188 16.007812 -7.421875 15.75 -5.828125 C 15.488281 -4.234375 15.207031 -2.648438 14.90625 -1.078125 C 14.40625 1.492188 13.875 4.066406 13.3125 6.640625 C 12.757812 9.210938 12.113281 11.757812 11.375 14.28125 C 11.144531 15.050781 10.882812 15.820312 10.59375 16.59375 C 10.3125 17.375 10.003906 18.132812 9.671875 18.875 C 9.367188 19.601562 8.96875 20.078125 8.46875 20.296875 C 7.96875 20.515625 7.34375 20.566406 6.59375 20.453125 C 5.570312 20.316406 5.101562 19.78125 5.1875 18.84375 C 5.21875 18.394531 5.265625 17.945312 5.328125 17.5 C 5.398438 17.0625 5.492188 16.632812 5.609375 16.21875 C 6.265625 13.707031 6.9375 11.195312 7.625 8.6875 C 8.320312 6.1875 9.019531 3.691406 9.71875 1.203125 C 10.101562 -0.148438 10.507812 -1.503906 10.9375 -2.859375 C 11.363281 -4.210938 11.757812 -5.582031 12.125 -6.96875 C 12.363281 -7.9375 12.5625 -8.925781 12.71875 -9.9375 C 12.875 -10.945312 13.019531 -11.953125 13.15625 -12.953125 C 13.375 -14.523438 13.546875 -16.097656 13.671875 -17.671875 C 13.796875 -19.253906 13.800781 -20.832031 13.6875 -22.40625 C 13.632812 -23.320312 13.546875 -24.226562 13.421875 -25.125 C 13.296875 -26.03125 13.140625 -26.9375 12.953125 -27.84375 C 12.835938 -28.394531 12.671875 -28.929688 12.453125 -29.453125 C 12.234375 -29.984375 11.984375 -30.5 11.703125 -31 C 11.535156 -31.363281 11.3125 -31.703125 11.03125 -32.015625 C 10.757812 -32.335938 10.484375 -32.632812 10.203125 -32.90625 C 9.796875 -33.289062 9.347656 -33.566406 8.859375 -33.734375 C 8.378906 -33.898438 7.847656 -33.929688 7.265625 -33.828125 C 6.242188 -33.628906 5.210938 -33.453125 4.171875 -33.296875 C 3.128906 -33.148438 2.097656 -33.007812 1.078125 -32.875 C -0.0546875 -32.726562 -1.191406 -32.597656 -2.328125 -32.484375 C -3.460938 -32.378906 -4.597656 -32.285156 -5.734375 -32.203125 C -6.117188 -32.148438 -6.515625 -32.144531 -6.921875 -32.1875 C -7.335938 -32.226562 -7.753906 -32.257812 -8.171875 -32.28125 Z M 12.609375 -34.40625 C 14.242188 -33.238281 15.359375 -31.847656 15.953125 -30.234375 C 16.546875 -28.617188 17 -26.867188 17.3125 -24.984375 C 17.46875 -25.335938 17.664062 -25.867188 17.90625 -26.578125 C 18.144531 -27.285156 18.398438 -28.085938 18.671875 -28.984375 C 18.953125 -29.890625 19.21875 -30.785156 19.46875 -31.671875 C 19.71875 -32.554688 19.929688 -33.347656 20.109375 -34.046875 C 20.285156 -34.753906 20.390625 -35.273438 20.421875 -35.609375 C 19.753906 -35.742188 19.09375 -35.734375 18.4375 -35.578125 C 17.789062 -35.429688 17.148438 -35.316406 16.515625 -35.234375 C 15.910156 -35.148438 15.273438 -35.078125 14.609375 -35.015625 C 13.941406 -34.960938 13.273438 -34.757812 12.609375 -34.40625 Z M 12.609375 -34.40625 "/></g></g></g><g fill="#ffffff" fill-opacity="1"><g transform="translate(178.454453, 212.928795)"><g><path d="M 14.0625 -10.828125 C 14.0625 -10.660156 14.078125 -10.507812 14.109375 -10.375 C 14.140625 -10.238281 14.140625 -10.128906 14.109375 -10.046875 C 13.972656 -9.742188 13.828125 -9.429688 13.671875 -9.109375 C 13.523438 -8.785156 13.351562 -8.472656 13.15625 -8.171875 C 12.269531 -6.734375 11.21875 -5.445312 10 -4.3125 C 8.78125 -3.175781 7.453125 -2.164062 6.015625 -1.28125 C 4.773438 -0.476562 3.460938 -0.117188 2.078125 -0.203125 C 0.00390625 -0.316406 -0.90625 -1.382812 -0.65625 -3.40625 C -0.601562 -3.675781 -0.550781 -3.925781 -0.5 -4.15625 C -0.21875 -5.3125 0.140625 -6.425781 0.578125 -7.5 C 1.023438 -8.582031 1.535156 -9.625 2.109375 -10.625 C 2.421875 -11.144531 2.726562 -11.441406 3.03125 -11.515625 C 3.332031 -11.585938 3.832031 -11.5 4.53125 -11.25 C 4.582031 -10.945312 4.550781 -10.648438 4.4375 -10.359375 C 4.332031 -10.066406 4.222656 -9.769531 4.109375 -9.46875 C 3.828125 -8.601562 3.546875 -7.734375 3.265625 -6.859375 C 2.992188 -5.992188 2.734375 -5.117188 2.484375 -4.234375 C 2.316406 -3.703125 2.25 -3.203125 2.28125 -2.734375 C 2.28125 -2.546875 2.328125 -2.351562 2.421875 -2.15625 C 2.523438 -1.96875 2.601562 -1.773438 2.65625 -1.578125 C 3.207031 -1.609375 3.695312 -1.722656 4.125 -1.921875 C 4.550781 -2.128906 4.972656 -2.359375 5.390625 -2.609375 C 6.828125 -3.492188 8.15625 -4.503906 9.375 -5.640625 C 10.59375 -6.773438 11.703125 -8.035156 12.703125 -9.421875 C 12.890625 -9.640625 13.066406 -9.894531 13.234375 -10.1875 C 13.398438 -10.476562 13.675781 -10.691406 14.0625 -10.828125 Z M 5.359375 -15.140625 C 4.992188 -14.867188 4.578125 -14.765625 4.109375 -14.828125 C 3.640625 -14.898438 3.28125 -15.117188 3.03125 -15.484375 C 2.832031 -15.785156 2.789062 -16.132812 2.90625 -16.53125 C 3.019531 -16.9375 3.253906 -17.238281 3.609375 -17.4375 C 4.078125 -17.707031 4.570312 -17.851562 5.09375 -17.875 C 5.625 -17.90625 6.164062 -17.851562 6.71875 -17.71875 C 6.550781 -17.332031 6.398438 -16.976562 6.265625 -16.65625 C 6.128906 -16.34375 5.976562 -16.035156 5.8125 -15.734375 C 5.726562 -15.535156 5.578125 -15.335938 5.359375 -15.140625 Z M 5.359375 -15.140625 "/></g></g></g><g fill="#ffffff" fill-opacity="1"><g transform="translate(189.616871, 212.928795)"><g><path d="M 9.875 -4.28125 C 10.125 -4.363281 10.296875 -4.394531 10.390625 -4.375 C 10.492188 -4.363281 10.695312 -4.273438 11 -4.109375 C 10.664062 -3.742188 10.359375 -3.476562 10.078125 -3.3125 C 9.804688 -3.15625 9.4375 -3.046875 8.96875 -2.984375 C 8.5 -2.929688 7.804688 -2.890625 6.890625 -2.859375 C 6.503906 -2.503906 6.132812 -2.160156 5.78125 -1.828125 C 5.4375 -1.492188 5.097656 -1.160156 4.765625 -0.828125 C 4.359375 -0.410156 3.929688 -0.0507812 3.484375 0.25 C 3.046875 0.550781 2.578125 0.742188 2.078125 0.828125 C 1.742188 0.878906 1.410156 0.898438 1.078125 0.890625 C 0.742188 0.878906 0.425781 0.832031 0.125 0.75 C -0.925781 0.414062 -1.328125 -0.523438 -1.078125 -2.078125 C -0.992188 -2.628906 -0.851562 -3.144531 -0.65625 -3.625 C -0.46875 -4.113281 -0.25 -4.578125 0 -5.015625 C 0.195312 -5.378906 0.40625 -5.738281 0.625 -6.09375 C 0.84375 -6.457031 1.078125 -6.832031 1.328125 -7.21875 C 1.296875 -8.019531 1.429688 -8.722656 1.734375 -9.328125 C 2.046875 -9.941406 2.4375 -10.507812 2.90625 -11.03125 C 3.375 -11.53125 3.859375 -11.957031 4.359375 -12.3125 C 4.859375 -12.675781 5.394531 -12.929688 5.96875 -13.078125 C 6.414062 -13.160156 6.789062 -13.1875 7.09375 -13.15625 C 8.476562 -12.957031 9.144531 -11.921875 9.09375 -10.046875 C 9.0625 -9.296875 8.953125 -8.570312 8.765625 -7.875 C 8.585938 -7.1875 8.363281 -6.507812 8.09375 -5.84375 C 8.007812 -5.570312 7.910156 -5.289062 7.796875 -5 C 7.691406 -4.707031 7.566406 -4.410156 7.421875 -4.109375 C 7.867188 -3.941406 8.289062 -3.890625 8.6875 -3.953125 C 9.09375 -4.023438 9.488281 -4.132812 9.875 -4.28125 Z M 1.328125 -0.125 C 1.691406 -0.175781 2.109375 -0.367188 2.578125 -0.703125 C 3.046875 -1.035156 3.492188 -1.441406 3.921875 -1.921875 C 4.347656 -2.410156 4.6875 -2.90625 4.9375 -3.40625 C 4.6875 -3.570312 4.4375 -3.726562 4.1875 -3.875 C 3.9375 -4.03125 3.703125 -4.207031 3.484375 -4.40625 C 3.234375 -4.5625 3 -4.75 2.78125 -4.96875 C 2.5625 -5.195312 2.3125 -5.421875 2.03125 -5.640625 C 1.675781 -5.171875 1.398438 -4.671875 1.203125 -4.140625 C 1.003906 -3.617188 0.820312 -3.082031 0.65625 -2.53125 C 0.601562 -2.28125 0.570312 -2.007812 0.5625 -1.71875 C 0.550781 -1.425781 0.546875 -1.144531 0.546875 -0.875 C 0.566406 -0.289062 0.828125 -0.0390625 1.328125 -0.125 Z M 5.84375 -4.640625 C 6.375 -5.523438 6.785156 -6.445312 7.078125 -7.40625 C 7.367188 -8.363281 7.5 -9.378906 7.46875 -10.453125 C 7.46875 -10.765625 7.429688 -11.0625 7.359375 -11.34375 C 7.296875 -11.632812 7.125 -11.863281 6.84375 -12.03125 C 6.257812 -11.78125 5.742188 -11.40625 5.296875 -10.90625 C 4.859375 -10.414062 4.460938 -9.820312 4.109375 -9.125 C 3.972656 -8.820312 3.890625 -8.507812 3.859375 -8.1875 C 3.828125 -7.875 3.851562 -7.535156 3.9375 -7.171875 C 4.101562 -6.535156 4.34375 -6.015625 4.65625 -5.609375 C 4.976562 -5.210938 5.375 -4.890625 5.84375 -4.640625 Z M 5.84375 -4.640625 "/></g></g></g></svg>